<?xml version="1.0" encoding="UTF-8" standalone="no"?>
<svg
   xmlns:dc="http://purl.org/dc/elements/1.1/"
   xmlns:cc="http://creativecommons.org/ns#"
   xmlns:rdf="http://www.w3.org/1999/02/22-rdf-syntax-ns#"
   xmlns:svg="http://www.w3.org/2000/svg"
   xmlns="http://www.w3.org/2000/svg"
   xmlns:sodipodi="http://sodipodi.sourceforge.net/DTD/sodipodi-0.dtd"
   xmlns:inkscape="http://www.inkscape.org/namespaces/inkscape"
   inkscape:version="1.0 (4035a4fb49, 2020-05-01)"
   sodipodi:docname="Map Of New England Counties.svg"
   version="1.0"
   height="1955.5972"
   width="1200"
   id="svg2">
  <title
     id="title1643">Map Of New England Counties</title>
  <defs
     id="defs985" />
  <sodipodi:namedview
     inkscape:pagecheckerboard="true"
     fit-margin-bottom="0"
     fit-margin-right="0"
     fit-margin-left="0"
     fit-margin-top="0"
     inkscape:current-layer="layer2"
     inkscape:window-maximized="1"
     inkscape:window-y="1072"
     inkscape:window-x="1912"
     inkscape:cy="955.92067"
     inkscape:cx="124.34012"
     inkscape:zoom="0.35355339"
     showgrid="false"
     id="namedview983"
     inkscape:window-height="1017"
     inkscape:window-width="1920"
     inkscape:pageshadow="2"
     inkscape:pageopacity="0"
     guidetolerance="10"
     gridtolerance="10"
     objecttolerance="10"
     borderopacity="1"
     bordercolor="#666666"
     pagecolor="#ffffff" />
  <metadata
     id="metadata7">
    <rdf:RDF>
      <cc:Work>
        <dc:format>image/svg+xml</dc:format>
        <dc:type
           rdf:resource="http://purl.org/dc/dcmitype/StillImage" />
        <dc:title>Map Of New England Counties</dc:title>
        <cc:license
           rdf:resource="http://creativecommons.org/publicdomain/zero/1.0/" />
        <dc:date>2020-07-11</dc:date>
        <dc:creator>
          <cc:Agent>
            <dc:title>U.S. Census Bureau</dc:title>
          </cc:Agent>
        </dc:creator>
        <dc:source>https://commons.wikimedia.org/wiki/File:Usa_counties_large.svg</dc:source>
      </cc:Work>
      <cc:License
         rdf:about="http://creativecommons.org/publicdomain/zero/1.0/">
        <cc:permits
           rdf:resource="http://creativecommons.org/ns#Reproduction" />
        <cc:permits
           rdf:resource="http://creativecommons.org/ns#Distribution" />
        <cc:permits
           rdf:resource="http://creativecommons.org/ns#DerivativeWorks" />
      </cc:License>
    </rdf:RDF>
  </metadata>
  <style
     type="text/css"
     id="style_css_sheet">
  /* * Below are Cascading Style Sheet (CSS) definitions in use in this file, * which allow easily changing how counties are displayed. * * To e.g. colour two counties red simply go to the CSS insertion point and add: * .c02185, c02188 {fill:red} * * */ 
  .counties {fill:#d0d0d0;fill-rule:nonzero;stroke:#000000;stroke-width:0.178287;} 
  .State_Lines {fill:none;stroke:#221e1f;stroke-width:0.89143497;} 
  .separator {fill:none;stroke:#a9a9a9;stroke-width:2.3177309;} 
  /*CSS insertion point*/
 </style>
  <g
     inkscape:label="Counties"
     id="layer3"
     inkscape:groupmode="layer">
    <g
       style="display:inline;fill:#d0d0d0;stroke:#000000;stroke-width:0.17829"
       transform="matrix(11.839969,0,0,11.839969,-10515.857,-391.28785)"
       class="counties"
       id="county-group">
      <path
         style="fill:#d0d0d0"
         d="m 910.38,171.67 3.1779,-0.74731 0.22757,0.87968 0.82688,-0.25166 0.049,-0.89993 3.9788,-0.93278 0.77198,1.888 -0.50103,0.13505 0.48085,1.91 0.3197,-0.0698 0.14846,1.1444 0.48574,-0.2036 1.3114,2.9161 0.35685,0.16748 0.56266,0.75038 0.0571,0.127 0.0963,0.531 -0.82725,0.643 -1.0038,-1.253 -1.995,0.66 -1.3568,0.642 -0.36192,1.253 -2.9268,1.0966 -0.5598,-1.7687 -0.68358,0.26216 -1.4388,-3.43 1.0786,-0.459 0.0945,-4.002 -2.3142,0.731 -0.0553,-1.719"
         class="c09003"
         id="Hartford__CT" />
      <path
         style="fill:#d0d0d0"
         d="m 909.64,171.84 0.73989,-0.168 0.0553,1.719 2.3142,-0.731 -0.0945,4.002 -1.0786,0.459 1.4388,3.43 -1.7757,2.218 -0.65852,0.34006 0.3381,0.96295 -2.7497,0.86699 -0.0553,0.306 0.0374,0.191 0.1462,0.146 0.21751,0.136 -0.0321,0.05 h -0.24069 l -0.77515,-0.246 -0.35728,-0.42266 -0.73867,0.5944 -0.39671,-0.63874 -0.14976,-0.264 -0.3227,-0.531 -0.90035,-1.89 -0.14441,-0.168 -0.46712,-0.1 -1.5743,-8.743 7.2242,-1.528"
         class="c09005"
         id="Litchfield__CT" />
      <path
         style="fill:#d0d0d0"
         d="m 904.53,185.29 -0.54556,-3.182 0.46712,0.1 0.14441,0.168 0.90035,1.89 0.3227,0.531 0.14976,0.264 0.39671,0.63874 0.73867,-0.5944 0.35728,0.42266 0.77515,0.246 h 0.24069 l 0.0321,-0.05 0.62579,0.233 1.3514,0.442 2.9881,2.115 -0.0571,1.116 -0.2086,0.481 -0.041,0.186 0.0499,1.094 0.0481,0.109 0.27456,0.171 -1.1589,0.314 -2.9096,2.2 -3.9918,3.389 -0.0981,0.188 -0.0499,0.247 -1.7971,-2.312 1.2516,-1.278 2.264,-2.3339 -1.6114,-1.4831 -0.2817,-1.623 -0.62757,-3.68"
         class="c09001"
         id="Fairfield__CT" />
      <path
         style="fill:#d0d0d0"
         d="m 917.18,180.96 0.58656,1.792 0.2953,1.5488 0.92597,-0.28684 0.62043,-0.307 0.24069,0.154 0.74702,0.843 2.0075,2.492 -0.88431,-0.05 -0.5616,0.136 -2.3142,0.7 -1.4459,0.608 -0.78803,0.115 -0.37084,-0.459 -0.1355,0.06 -1.9612,2.283 -0.26564,0.371 -0.31379,0.594 -0.0214,0.09 v 0.02 l -0.27456,-0.171 -0.0481,-0.109 -0.0499,-1.094 0.041,-0.186 0.2086,-0.481 0.0571,-1.116 -2.9881,-2.115 -1.3514,-0.442 -0.62579,-0.233 -0.21751,-0.136 -0.1462,-0.146 -0.0374,-0.191 0.0553,-0.306 2.7497,-0.86699 -0.3381,-0.96295 0.65852,-0.34006 1.7757,-2.218 0.68358,-0.26216 0.5598,1.7687 2.9268,-1.0966"
         class="c09009"
         id="New_Haven__CT" />
      <path
         style="fill:#d0d0d0"
         d="m 921.9,179.66 0.9834,0.86094 1.686,-0.52982 0.78267,2.0366 -1.8698,0.78925 2.2991,3.071 -3.1753,1.31 -2.0075,-2.492 -0.74702,-0.843 -0.24069,-0.154 -0.62043,0.307 -0.92597,0.28662 -0.2956,-1.5486 -0.58626,-1.792 0.36192,-1.253 1.3568,-0.642 1.995,-0.66 1.0038,1.253"
         class="c09007"
         id="Middlesex__CT" />
      <path
         style="fill:#d0d0d0"
         d="m 933.05,176.48 0.96081,3.9425 -0.0783,0.0701 -0.26579,-0.003 -0.274,0.35605 0.0488,0.31509 0.20975,0.25828 0.0393,0.44768 0.20028,0.26774 0.0406,0.21847 -0.23405,0.3037 -0.11093,0.0764 -0.10146,0.19952 -0.5057,-0.20947 -0.99405,0.29866 -0.629,0.50681 -0.3464,0.27884 -1.286,0.14348 -0.33613,0.62381 -0.44615,0.1009 -0.46959,-0.0718 -0.29481,-0.22121 -0.3019,0.11786 0.0195,0.63166 -0.871,0.4035 -0.90748,0.355 -0.16937,0.02 -0.16759,-0.03 -2.2991,-3.071 1.8698,-0.78925 -0.78267,-2.0366 -1.686,0.52982 -0.9834,-0.86094 0.82725,-0.643 1.2615,-0.60147 0.93146,-2.6365 1.0929,0.626 0.58656,0.291 3.5354,-0.355 1.503,-0.617 1.1589,-0.202 0.25495,0.965 m -2.1582,8.8071 0.18785,-0.60504 0.18662,-0.0129 0.10743,0.0977 0.12855,-0.36953 0.58387,-0.31957 0.2143,-0.16388 0.2563,-0.10113 -0.0594,0.29583 -0.32804,0.24894 -0.45893,0.33465 -0.21661,0.4029 -0.23153,-0.002 z"
         class="c09011"
         id="New_London__CT" />
      <path
         style="fill:#d0d0d0"
         d="m 925.38,168.14 0.4475,1.549 -1.5868,0.401 -0.34587,0.112 0.68997,2.766 0.78803,-0.18352 0.68997,1.7505 -0.62433,-0.002 0.13582,0.5795 -1.0033,0.2528 0.35075,0.4072 -0.93146,2.6365 -1.2615,0.60147 -0.0963,-0.531 -0.0571,-0.127 -0.56266,-0.75038 -0.35685,-0.16748 -1.3114,-2.9161 -0.48574,0.2036 -0.14846,-1.1444 -0.3197,0.0698 -0.48085,-1.91 0.50103,-0.13505 -0.77198,-1.888 6.1794,-1.464 0.56161,-0.11"
         class="c09013"
         id="Tolland__CT" />
      <path
         style="fill:#d0d0d0"
         d="m 930.49,167.31 1.8096,6.307 0.4992,1.897 -1.1589,0.202 -1.503,0.617 -3.5354,0.355 -0.58656,-0.291 -1.0929,-0.626 -0.35075,-0.4072 1.0033,-0.2528 -0.13582,-0.5795 0.62433,0.002 -0.68997,-1.7505 -0.78803,0.18352 -0.68997,-2.766 0.34587,-0.112 1.5868,-0.401 -0.4475,-1.549 0.7078,-0.147 4.2896,-1.019 0.11232,0.337"
         class="c09015"
         id="Windham__CT" />
      <path
         style="fill:#d0d0d0"
         d="m 924.77,152 0.0713,0.16 0.7861,0.65186 0.33271,0.88991 1.1698,-0.37536 -0.0598,-0.30677 2.0115,0.3056 0.27445,1.7834 0.74823,0.0913 -0.0188,-0.60805 1.5378,-0.35989 0.25851,0.476 -0.27868,1.0552 0.39814,0.19785 0.0642,1.284 -0.77666,0.41624 0.57698,0.23576 -0.51525,1.013 0.41336,0.2467 0.34567,0.42718 0.66153,-0.4978 0.99993,-0.31732 -0.0379,1.4198 -1.1208,0.56254 -0.26346,0.67535 0.14263,0.3595 0.44928,0.419 0.53129,0.175 0.78261,-0.42845 0.64726,0.65445 0.4885,3.206 -4.9011,1.503 -0.11232,-0.337 -4.2896,1.019 -0.7078,0.147 -0.56161,0.11 -0.73989,-2.949 -1.0768,0.289 -1.1731,-0.248 -0.0784,-0.29 0.007,-0.175 0.42432,-1.086 -0.2665,-1.3296 -1.0079,0.2894 -0.34215,-0.92105 -0.47833,0.15322 -0.29774,-1.182 0.23037,-0.984 -0.32667,-0.984 0.50892,-0.78078 -0.53554,-0.39781 -0.36862,-1.3734 0.26788,-0.41188 0.37234,-0.13335 -0.32397,-1.0386 -0.70693,-0.0637 -0.4603,-1.2645 5.8318,-1.263 0.49208,-0.11"
         class="c25027"
         id="Worcester__MA" />
      <path
         style="fill:#d0d0d0"
         d="m 935.12,148.75 0.63827,1.535 -0.26693,0.3124 1.9054,0.7876 1.6274,-0.59954 0.7887,0.66473 -0.67083,0.18954 0.11786,0.85427 0.60493,-0.0342 0.0619,0.88222 0.3334,0.424 0.33339,0.424 -0.0963,0.618 -0.3851,0.867 0.16221,0.40251 -0.18747,0.35864 -0.45148,0.11863 -0.18292,-0.26678 -0.68997,0.441 0.1576,0.49287 0.162,0.097 -0.238,0.428 0.28894,0.145 -0.2832,0.64413 -0.81121,-0.634 -0.0481,-0.03 -0.41006,-0.04 -0.27991,0.04 -0.89321,0.602 0.21037,0.33 0.39224,0.513 0.22642,0.484 -0.45941,0.25689 0.0636,0.98911 -0.82547,0.738 -1.1107,0.82 -0.64725,-0.65445 -0.78262,0.42845 -0.53129,-0.175 -0.44928,-0.419 -0.14263,-0.3595 0.26346,-0.67535 1.1208,-0.56254 0.0379,-1.4198 -0.99993,0.31732 -0.66153,0.4978 -0.34567,-0.42718 -0.41336,-0.2467 0.51525,-1.012 -0.57698,-0.23626 0.77666,-0.41674 -0.0642,-1.284 -0.39814,-0.19785 0.27868,-1.0552 -0.25851,-0.476 -1.5378,0.35989 0.0188,0.60805 -0.74823,-0.0913 -0.27445,-1.7834 -2.0115,-0.3056 0.0598,0.30677 -1.1698,0.37536 -0.33271,-0.88991 -0.7861,-0.65186 -0.0713,-0.16 4.0649,-0.909 0.2496,-0.06 0.0713,-0.02 5.5465,-1.278 0.41541,-0.988"
         class="c25017"
         id="Middlesex__MA" />
      <path
         style="fill:#d0d0d0"
         d="m 963.11,175.09 0.15155,-0.08 0.26743,-0.306 0.19255,-0.36 0.12836,-0.468 -0.0784,-0.465 -0.0909,-0.16 -0.1765,-0.163 -0.16225,-0.128 -0.0945,-0.08 -0.016,-0.09 0.29774,0.06 0.353,0.312 1.5261,1.729 0.0909,0.321 -0.0107,0.241 -0.007,0.05 -0.12124,0.16 -0.39401,0.298 -0.21751,0.1 -1.3639,0.314 -0.36905,0.07 -0.95027,-0.06 -1.6153,-0.321 -0.21573,-0.1 -0.15332,-0.128 -0.0892,-0.186 0.2496,-0.06 0.21751,0.05 0.0963,0.03 0.8433,-0.03 1.1963,-0.312 0.51525,-0.233"
         class="c25019"
         id="Nantucket__MA" />
      <path
         style="fill:#d0d0d0"
         d="m 952.44,166.17 0.27482,-0.0425 0.33875,0.241 0.4885,0.272 0.44216,0.12484 1.0786,0.0578 0.64718,-0.04 1.1123,-0.33411 0.68939,0.26544 0.56977,-0.68173 1.1304,-0.72019 0.85935,-0.58 0.69879,-0.39566 0.17294,-0.378 0.27945,-0.16792 -0.20146,-0.666 -0.31379,-0.821 -0.14441,-0.45542 -0.52951,-0.755 -0.27631,-0.0504 -0.15994,0.31779 0.0881,0.93091 -0.42665,-0.98125 -0.51052,-1.721 -0.43154,-0.50496 -0.26743,-0.185 -0.29774,-0.113 -0.47424,-0.112 -0.11945,0.03 -0.22465,0.127 -0.12301,0.114 -0.0963,0.169 -0.0553,0.28 0.016,0.121 -0.94849,-0.369 -0.0553,-0.07 0.0642,-0.232 0.16937,-0.185 0.28882,-0.16 0.27991,-0.09 0.49564,-0.05 0.79694,0.04 0.62936,0.138 0.47959,0.208 0.55626,0.385 0.52951,0.53 0.66679,0.772 0.5313,0.763 0.82224,1.4552 0.37975,0.756 0.51848,1.5402 0.31735,1.101 0.0571,0.507 -0.17049,0.65017 -0.0392,1.8959 -0.35004,0.159 0.13489,-0.96978 -0.13602,-1.2333 -0.0392,-0.128 -0.082,-0.145 -0.4261,-0.201 -0.19969,-0.05 -0.12123,0.03 -3.3633,1.8146 -0.1649,0.7257 -0.47284,-0.44991 -1.14,0.25291 -0.10484,0.36167 -1.1114,0.66339 -0.59841,1.5205 -2.166,0.86578 -0.57454,0.71455 -0.62579,-0.06 0.55048,-1.1736 -0.45983,-2.215 -0.3656,-0.38681 0.3589,-0.45594 -0.35904,-0.20528 0.0649,-1.1777 1.1483,-1.1778"
         class="c25001"
         id="Barnstable__MA" />
      <path
         style="fill:#d0d0d0"
         d="m 940.59,154.19 0.81299,0.322 0.0614,0.54745 0.82912,0.89955 -0.8363,0.13613 -0.11761,0.54798 0.43955,0.56889 -0.58388,0.085 -0.0713,0.89107 -1.037,1.1923 -1.2406,-0.84432 0.28321,-0.64417 0.222,0.112 0.409,-0.91 -0.021,-0.384 -0.392,0.126 -0.26896,0.48297 -0.16204,-0.0966 -0.15757,-0.49328 0.68997,-0.441 0.18292,0.26678 0.45148,-0.11863 0.18747,-0.35864 -0.16221,-0.40251 0.3851,-0.867 0.0963,-0.618"
         class="c25025"
         id="Suffolk__MA" />
      <path
         style="fill:#d0d0d0"
         d="m 937.5,166.03 4.2914,-3.792 1.2926,2.819 0.92888,0.19484 0.98305,1.6032 -0.47137,0.82301 -0.40919,0.38793 0.45747,0.17127 0.0483,0.55921 1.6674,-0.61491 0.7089,0.6925 1.7918,2.758 -0.30487,-0.02 -0.76307,0.112 -0.312,0.411 -0.18721,0.242 -0.0303,0.06 0.0553,0.747 0.0784,0.273 0.25852,0.31434 -1.4509,1.2466 -0.88346,0.0403 -0.50487,0.61584 -0.72333,-2.1901 -0.2726,-0.23377 -0.004,-0.44474 -0.2822,-0.71326 -1.0476,-0.10782 0.10191,-0.31941 0.25202,-0.31374 -0.23415,-0.0256 -0.72635,-0.2237 -0.13843,0.20612 -0.75594,-0.68594 -1.1202,-0.26096 -0.17467,-0.015 -0.10331,-0.17553 -0.19594,-0.16113 -0.0893,-0.29768 -0.149,-0.22941 0.0644,-0.29768 -0.10639,-0.14793 0.005,-0.3997 -0.30268,-0.63866 -0.0296,-0.21621 -0.66294,0.32026 -0.54878,-2.0694"
         class="c25005"
         id="Bristol__MA" />
      <path
         style="fill:#d0d0d0"
         d="m 943.38,157.78 0.18957,-0.75345 -0.44529,-0.2471 0.5065,-0.0892 0.70301,0.56078 0.59458,-0.0389 -0.249,0.49338 0.434,0.91951 0.639,-0.71815 0.073,-0.56657 1.1507,0.79669 2.0681,2.298 -0.18871,1.4397 -0.50578,0.60895 1.8684,0.82522 0.84376,-0.21105 0.97757,1.2902 0.28883,0.66 0.10697,1.117 -1.1483,1.1782 -0.0649,1.1782 -1.2855,-0.024 0.23801,0.86814 -0.52692,-0.0327 0.10913,1.247 -0.96244,-0.0733 0.49485,0.6303 -0.50346,0.49299 -1.7918,-2.758 -0.7089,-0.6925 -1.6674,0.61491 -0.0483,-0.55921 -0.45747,-0.17127 0.40919,-0.38793 0.47137,-0.82301 -0.98305,-1.6032 -0.92888,-0.19484 -1.2926,-2.819 2.1708,-2.1921 -0.57866,-2.2599"
         class="c25023"
         id="Plymouth__MA" />
      <path
         style="fill:#d0d0d0"
         d="m 939.74,156.82 0.021,0.38363 -0.409,0.90988 -0.222,-0.11155 -0.289,-0.14518 0.238,-0.42786 0.269,-0.48316 z m 2.4709,1.1749 -0.43164,-0.67383 v -0.002 l -0.58399,0.0859 -0.0703,0.89062 -0.70161,0.20344 -0.3355,0.98797 -1.2402,-0.84375 -0.8125,-0.63281 -0.0469,-0.0312 -0.41016,-0.0391 -0.28124,0.0391 -0.89258,0.60351 0.21093,0.32813 0.39258,0.51367 0.22461,0.48437 -0.45877,0.25694 0.0642,0.98916 -0.82617,0.73828 -1.1113,0.82031 0.49023,3.2051 1.918,-0.55887 0.18945,0.77567 4.291,-3.791 2.1699,-2.1934 -0.57812,-2.2598 -0.51953,-0.13281 z m 2.7188,-0.67187 -0.25,0.49414 0.43359,0.91992 0.64063,-0.71875 0.0723,-0.56641 z"
         transform="translate(0,-0.10698)"
         id="Norfolk__MA" />
      <path
         style="fill:#d0d0d0"
         d="m 941.4,143.75 0.11946,0.481 0.61865,1.478 0.96275,1.849 0.99663,0.442 0.71671,-0.0229 0.57555,-1.0743 0.22985,0.10289 0.22614,0.59815 0.42435,-0.14104 0.0963,0.54502 -0.40818,0.35288 -0.19546,1.1496 -0.22719,0.12664 -0.27433,-0.2391 -0.24307,0.37008 -1.7043,0.88681 -0.19732,0.36014 -0.71024,0.28513 0.25072,0.42241 0.5524,0.14568 0.11062,0.50477 -0.25521,0.0856 -0.39435,0.35508 -0.13426,0.44893 -0.4381,0.006 -0.12551,0.24107 0.21808,0.55585 0.48195,0.11827 0.0433,0.101 -0.56679,0.13501 -0.10221,-0.0735 -0.29129,-0.66367 -0.20204,0.34418 -0.15356,0.49107 -0.81299,-0.322 -0.66679,-0.848 -0.0619,-0.88222 -0.60493,0.0342 -0.11786,-0.85427 0.67083,-0.18954 -0.7887,-0.66473 -1.6274,0.59954 -1.9054,-0.7876 0.26693,-0.3124 -0.63827,-1.535 0.10698,-0.242 0.9469,-0.0475 -0.39716,-1.0555 0.35774,-0.71899 0.21751,-0.227 1.3523,-0.073 0.22913,-1.276 1.5493,-1.15 h 0.007 l 0.13193,-0.06 0.11232,-0.06 0.48851,-0.03 0.59191,0.30101 0.59191,-0.37101"
         class="c25009"
         id="Essex__MA" />
      <path
         style="fill:#d0d0d0"
         d="m 922.18,163.79 -0.42432,1.086 -0.007,0.175 0.0784,0.29 1.1731,0.248 1.0768,-0.289 0.73989,2.949 -6.1794,1.464 -3.9788,0.93278 -0.049,0.89993 -0.82688,0.25166 -0.22757,-0.87968 -3.1779,0.74731 -0.73989,0.168 -0.62757,-1.132 -0.0802,-0.209 -0.19255,-1.022 0.62757,-0.04 -0.0499,-2.547 -0.32092,-1.382 0.59548,-0.901 0.96988,-0.16 0.2193,0.137 0.44928,1.494 -0.34628,0.75066 0.69888,0.355 0.12536,-0.55516 1.012,-0.24176 0.51046,0.76126 1.6492,-0.02 -0.26577,-0.64904 0.55813,-0.50575 0.21783,-1.1685 0.26939,-0.21152 0.14401,0.61239 -0.23212,0.57657 0.68134,0.32581 2.997,-1.239 0.35707,0.95095 0.57201,-0.19536 0.33917,-0.84015 1.6646,-0.98344"
         class="c25013"
         id="Hampden__MA" />
      <path
         style="fill:#d0d0d0"
         d="m 920.09,161.99 0.47833,-0.15322 0.34215,0.92105 1.0079,-0.2894 0.2665,1.3296 -1.6646,0.98344 -0.33917,0.84015 -0.57201,0.19536 -0.35707,-0.95095 -2.997,1.239 -0.68134,-0.32581 0.23212,-0.57657 -0.14401,-0.61239 -0.26939,0.21152 -0.21783,1.1685 -0.55813,0.50575 0.26577,0.64904 -1.6492,0.02 -0.51046,-0.76126 -1.012,0.24176 -0.12536,0.55516 -0.69888,-0.355 0.34628,-0.75066 -0.44928,-1.494 -0.2193,-0.137 -0.96988,0.161 -0.59548,0.9 -0.0553,0.192 -0.36192,0.02 -0.69888,-0.321 -0.37797,-1.141 v -0.201 l 0.93957,-0.02 -0.0713,-2.049 -0.11232,-1.4325 -0.21838,-0.41878 1.6709,-0.0637 0.33944,1.2376 0.73048,-0.0279 1.26,0.0629 0.18579,0.3201 0.74561,-0.46667 0.35117,1.0814 2.53,-1.2184 0.83352,-0.26309 0.16753,0.57774 1.8016,-0.784 0.98817,2.4977 0.44348,-1.1034"
         class="c25015"
         id="Hampshire__MA" />
      <path
         style="fill:#d0d0d0"
         d="m 902.27,156.84 3.9847,-0.861 0.20346,0.96776 1.0701,-0.10621 -0.44844,0.82447 0.77439,0.2004 0.1843,2.2733 0.21838,0.41878 0.11232,1.4325 0.0713,2.049 -0.93957,0.02 v 0.201 l 0.37797,1.141 0.69888,0.321 0.36192,-0.02 0.0553,-0.192 0.32092,1.382 0.0499,2.547 -0.62757,0.04 0.19255,1.022 0.0802,0.209 0.62757,1.132 -7.2242,1.528 -0.16046,0.04 -0.3851,-0.779 0.25317,-10.141 0.14798,-5.648"
         class="c25003"
         id="Berkshire__MA" />
      <path
         style="fill:#d0d0d0"
         d="m 915.55,153.99 2.8936,-0.618 0.4603,1.2645 0.70693,0.0637 0.32397,1.0386 -0.37234,0.13335 -0.26788,0.41188 0.36862,1.3734 0.53554,0.39781 -0.50892,0.78078 0.32667,0.984 -0.23037,0.984 0.29774,1.182 -0.44348,1.1034 -0.98817,-2.4977 -1.8016,0.784 -0.16753,-0.57774 -0.83352,0.26309 -2.53,1.2184 -0.35117,-1.0814 -0.74561,0.46667 -0.18579,-0.3201 -1.26,-0.0629 -0.73048,0.0279 -0.33944,-1.2376 -1.6709,0.0637 -0.1843,-2.2733 -0.77439,-0.2004 0.44844,-0.82447 -1.0701,0.10621 -0.20346,-0.96776 1.5279,-0.321 7.7698,-1.664"
         class="c25011"
         id="Franklin__MA" />
      <path
         style="fill:#d0d0d0"
         d="m 956.26,174.17 0.21573,0.522 0.23177,0.965 -0.016,0.137 -4.2115,1.1838 -0.58442,0.56721 -0.23818,0.62581 -1.0628,-0.31784 -0.25373,-0.48179 1.0555,-0.25118 0.65075,-2.041 0.17829,-0.298 0.49742,-0.611 0.624,-0.681 h 0.0981 l 0.0891,0.1955 0.63015,-0.11154 0.45076,0.85295 0.84302,0.32467 0.47592,0.20556 z m -4.1383,-1.1594 -0.72745,0.89939 -0.66451,1.1249 -0.74329,0.24289 -0.40652,0.55782 -0.53132,0.34779 -0.73977,0.32005 -0.19698,-0.0109 0.18741,-0.39674 0.70483,-0.1876 0.39561,-0.56769 1.4035,-1.2495 0.14164,-0.45952 0.55104,-0.68289 0.62579,0.06"
         class="c25007"
         id="Dukes__MA" />
      <path
         style="fill:#d0d0d0"
         d="m 950.81,56.776 -1.191,-3.873 -13.739,3.937 -4.6212,1.301 -0.34588,-2.715 -0.009,-0.07 0.0178,-0.06 0.41719,-1.238 1.1713,-3.439 2.2678,-6.589 3.0541,-8.84 1.2444,-0.103 1.4798,-0.03 0.22464,0.06 0.27099,0.369 0.0571,0.1 -0.11233,0.152 -0.016,0.03 -0.0321,0.536 0.80407,2.589 0.23356,0.209 0.12836,0.06 2.4033,0.786 0.61688,-0.537 1.6723,-1.592 1.847,-1.679 2.8455,-2.484 0.39402,-0.224 0.74702,-0.234 0.69888,-0.06 0.2817,0.06 1.2854,0.433 3.744,1.599 3.3678,2.122 0.0481,0.112 5.3593,17.125 3.1432,10.157 -0.25139,0.376 -0.016,0.217 0.50633,2.275 0.27278,0.225 -3.4606,2.033 -2.9667,1.711 -0.007,0.08 0.0392,0.12 -1.0947,0.62 -1.1571,0.642 -0.36014,-0.06 -1.084,-3.682 -0.25852,-1.084 -0.49742,-1.767 -0.48316,-1.528 -2.997,-9.568 -4.0418,0.882 -1.9023,0.546"
         class="c23003"
         id="Aroostook__ME" />
      <path
         style="fill:#d0d0d0"
         d="m 950.81,56.776 0.89857,3.214 1.6064,5.481 2.0093,6.992 -1.9362,1.1 0.89144,3.327 1.56,-0.813 3.1236,5.955 -1.5894,0.7899 0.97073,1.7331 -4.3538,2.275 -2.9988,1.519 -2.209,1.807 -1.5422,0.772 -1.0929,-1.824 -4.7335,-9.24 0.22142,-2.3171 -2.4763,-1.5817 1.115,-1.0686 1.204,-2.7236 -1.3336,-2.427 -1.0768,-1.221 -2.2339,-7.658 -0.95383,-4.027 13.739,-3.937 1.191,3.873"
         class="c23021"
         id="Piscataquis__ME" />
      <path
         style="fill:#d0d0d0"
         d="m 956.88,103.75 -1.1172,1.5391 -0.71484,-0.47852 -0.14258,0.38281 -0.41016,0.21094 -0.16211,0.29492 0.35156,1.1328 0.49219,0.7168 0.5293,0.23242 0.5625,-0.0391 0.52148,-0.24219 1.0312,1.5352 0.72266,1.6562 -0.67383,1.0762 -0.10742,1.3262 1.543,-0.27343 0.63086,0.47461 0.81445,-0.66407 -0.18164,-0.61328 1.5606,-2.2344 0.0312,-0.4336 0.33984,-0.33789 -0.16602,-0.48633 -0.78515,0.40625 -0.0996,-0.58593 0.041,-0.44141 -0.20117,-0.6875 0.28321,-0.27344 -0.22657,-1.2578 -0.81054,-0.42578 z m 8.1699,1.9004 -0.32813,0.17774 -0.88086,1.0938 -0.16992,0.47265 -0.0332,0.43555 0.041,0.0605 0.47657,-0.0527 0.87304,1.5059 0.29688,0.0899 0.17578,-0.041 0.66016,-0.35937 0.15234,-0.13672 0.22461,-0.5 v 0.006 l 0.0684,-0.1211 0.0664,-0.30468 -0.0859,-0.1836 -0.57422,-0.93164 -0.4082,-0.10742 -0.12305,-0.20117 0.65039,-0.30469 -0.95313,-0.49609 z m 3.9277,0.60157 -0.61133,0.83984 0.35718,0.65895 0.0725,0.77269 0.43164,-0.32031 0.35547,0.13672 0.0215,-1.5801 z m -2.8887,6.3438 -0.11719,0.2832 0.42969,0.87305 0.26758,-0.33985 -0.25586,-0.21484 -0.0937,-0.47266 z"
         transform="translate(0,-0.10698)"
         id="Knox__ME" />
      <path
         style="fill:#d0d0d0"
         d="m 950.57,110.85 1.7205,-0.08 -0.80407,-2.291 -0.0892,-1.23 1.7365,-0.05 0.1355,-0.129 0.16224,-0.426 -0.16224,-1.439 1.6331,-0.121 -0.41006,0.211 -0.16224,0.295 0.35301,1.133 0.49207,0.716 0.52952,0.234 0.5616,-0.04 0.52238,-0.243 1.0305,1.537 0.72206,1.655 -0.67392,1.077 -0.10698,1.326 -0.41719,-0.05 -0.32091,-0.04 -0.24782,0.321 -0.0695,0.08 -0.0125,0.54 0.11232,0.892 -0.27991,1.654 -0.13729,0.193 -2.1216,0.948 -0.50634,0.161 h -0.37796 l -2.8116,-6.839"
         class="c23015"
         id="Lincoln__ME" />
      <path
         style="fill:#d0d0d0"
         d="m 950.57,110.85 2.8116,6.839 -0.14791,1.5974 -1.2107,1.2276 -1.1188,-1.1121 -0.47856,-1.647 -0.10572,-2.0903 -0.28971,-0.19252 -0.43182,0.75486 -0.3548,0.449 h -0.93065 l -0.74168,-0.435 -0.36014,-0.513 -0.47246,-3.431 1.7219,-0.013 0.0449,-0.49499 0.0392,-0.545 0.0321,-0.161 0.14441,-0.265 0.11946,-0.152 1.5582,-0.09 0.12302,0.153 0.0481,0.127"
         class="c23023"
         id="Sagadahoc__ME" />
      <path
         style="fill:#d0d0d0"
         d="m 939.76,116.44 -0.0107,0.05 0.0481,0.07 0.59547,0.24 0.90927,0.147 0.8192,0.14257 0.39288,-1.468 3.8174,1.9904 0.43324,-0.594 0.44215,-1.302 0.36014,0.514 0.74168,0.435 h 0.93065 l 0.3548,-0.449 0.43182,-0.75511 0.28971,0.19227 0.10572,2.0898 0.47856,1.648 -0.84516,0.63755 -0.45849,0.84628 -0.68293,0.40505 0.30704,-1.7583 -0.41006,-1.182 -0.15511,-0.11 -0.14442,0.05 -1.2503,2.111 -0.63291,1.101 -0.43502,1.792 v 0.153 l 0.32091,0.337 1.4165,1.6697 -0.83097,0.68863 -1.7759,0.85045 -1.2095,-0.31736 -1.6842,-0.51597 0.32805,-0.94 -1.9255,-1.228 -0.6397,0.76644 -0.96911,-0.0822 -0.36153,-1.7474 -1.6149,0.24658 -0.7782,-0.19674 -0.0374,-3.9528 -1.1267,-0.9058 -1.4109,-0.26633 -0.27405,-0.85843 0.79175,0.20737 1.4076,-2.019 1.0049,-0.76371 0.88649,0.61002 -0.25036,1.2969 0.26387,0.417 0.43502,0.403 0.11232,0.06 0.62757,0.1 0.86113,-0.859"
         class="c23005"
         id="Cumberland__ME" />
      <path
         style="fill:#d0d0d0"
         d="m 936.47,122.98 0.7782,0.19674 1.6149,-0.24658 0.36153,1.7474 0.96911,0.0822 0.6397,-0.76644 1.9255,1.228 -0.32805,0.94 1.6842,0.51597 1.2095,0.31736 -0.0713,1.599 0.59642,0.8564 -0.88564,2.4911 -1.01,0.32088 -0.52266,2.438 0.68934,0.51665 -0.95822,3.6388 -0.55937,-0.32519 -0.0802,0.16 -0.42789,0.37 -2.2482,-0.901 -0.624,-2.507 -0.0499,-0.06 -1.9433,-1.159 -0.80586,-0.401 -0.29595,-0.153 -0.46712,-0.649 -0.15154,-0.323 -0.12302,-0.513 -0.27991,-3.135 -2.0253,-5.279 1.5259,0.11483 1.8632,-1.1201"
         class="c23031"
         id="York__ME" />
      <path
         style="fill:#d0d0d0"
         d="m 940.97,105.9 1.5511,-1.118 1.0768,2.129 -0.5464,0.10083 1.1542,1.3554 0.90947,2.4158 1.6286,0.1 -0.003,1.405 0.47246,3.43 -0.44215,1.302 -0.43324,0.594 -3.8174,-1.9904 -0.39288,1.468 -0.8192,-0.14257 -0.90927,-0.147 -0.59547,-0.24 -0.0481,-0.07 0.0107,-0.05 -0.25852,-0.611 1.478,-4.001 0.15154,-0.685 v -3.006 l -0.52951,-1.098 -0.0891,-0.588 0.45106,-0.553"
         class="c23001"
         id="Androscoggin__ME" />
      <path
         style="fill:#d0d0d0"
         d="m 926.75,90.638 1.2534,2.909 0.9134,2.3124 -0.56039,0.23565 2.5656,6.033 2.0396,-2.071 2.6761,3.285 -0.33231,0.78049 4.3099,-0.49849 0.8843,1.334 0.46533,0.941 -0.45106,0.553 0.0891,0.588 0.52951,1.098 v 3.006 l -0.15154,0.685 -1.478,4.001 0.25852,0.611 -0.86113,0.86 -0.62757,-0.1 -0.11232,-0.06 -0.43502,-0.403 -0.26387,-0.417 0.25036,-1.2969 -0.88649,-0.61002 -1.0049,0.7637 -1.4076,2.019 -0.79176,-0.20737 0.27405,0.85843 1.4109,0.26632 1.1267,0.90581 0.0374,3.9528 -1.8632,1.1201 -1.5259,-0.11483 -3.284,-10.872 -3.0148,-9.586 -0.24068,-0.772 -3.3999,-10.253 -0.61865,-1.767 1.1018,-0.619 2.2179,1.229 0.22464,0.112 h 0.47411 l 0.19254,-0.177 0.0339,-0.09 -0.0178,-0.563"
         class="c23017"
         id="Oxford__ME" />
      <path
         style="fill:#d0d0d0"
         d="m 944.89,101.17 1.7187,-0.41 3.6174,-0.298 0.18363,-0.216 -0.082,-1.005 -0.54556,-0.402 -0.21573,-0.06 -0.28169,-0.29 -0.18542,-0.386 -0.0802,-0.24 2.2179,-1.118 h 0.22465 l 0.1141,0.209 0.0214,0.353 0.48673,0.964 1.0893,-0.151 0.28419,2.0452 0.65003,0.003 0.18542,2.016 -0.8219,0.08 -0.20146,2.957 0.16224,1.439 -0.16224,0.426 -0.1355,0.129 -1.7365,0.05 0.0892,1.23 0.80407,2.291 -1.7205,0.08 -0.0481,-0.127 -0.12302,-0.153 -1.5582,0.09 -0.11946,0.151 -0.14441,0.266 -0.0321,0.161 -0.0392,0.545 -0.0449,0.49499 -1.7219,0.013 0.003,-1.405 -1.6286,-0.1 -0.90947,-2.4158 -1.1542,-1.3554 0.5464,-0.10083 -1.0768,-2.129 1.1856,-0.33936 0.0626,-0.69984 -0.74352,-0.26836 0.3453,-1.2138 1.3628,-0.34775 0.1584,-0.7459"
         class="c23011"
         id="Kennebec__ME" />
      <path
         style="fill:#d0d0d0"
         d="m 961.51,94.305 -5.0625,2.8691 -0.89258,-1.791 -0.91601,0.45117 v 0.002 l -0.75977,0.39062 -0.76562,-0.51758 -0.6543,0.06641 -0.0996,1.2344 -0.75976,0.39258 0.48632,0.96289 1.0898,-0.15039 0.28515,2.0449 0.64844,0.004 0.18555,2.0156 -0.82031,0.0801 -0.20313,2.957 1.6348,-0.1211 0.14258,-0.38476 0.71484,0.47851 1.1172,-1.5391 3.6562,1.5098 0.8125,0.42578 0.76172,-2.25 v -0.23438 l -0.10352,-0.73047 -0.42852,-0.45858 -0.25312,-0.0727 -0.15625,-0.20898 -0.21485,-0.36914 0.0566,-0.29102 0.71679,-0.50586 0.0588,-0.42081 0.37886,-0.0371 0.3943,0.3252 0.89455,-1.0958 0.19922,-0.12109 -0.0156,-0.12695 -0.0879,-0.44336 -0.60156,-1.5898 -0.53907,-0.47656 -0.42187,-0.26367 -0.10156,-0.14453 -0.0332,-0.12695 0.11328,-1.4336 z m 0.78225,10.454 0.33115,-1.3246 -0.18188,-0.99919 -0.0554,-0.53447 0.24867,-0.48158 0.46012,0.0648 0.21748,0.59621 -0.34145,0.67709 0.34786,0.43657 -0.0556,1.2041 -0.40214,0.91233 z"
         transform="translate(0,-0.10698)"
         id="Waldo__ME" />
      <path
         style="fill:#d0d0d0"
         d="m 970.06,78.471 -3.623,1.8945 1.3281,2.5176 -1.8984,1.0195 0.93164,1.7266 -1.873,0.95898 0.60351,1.1152 1.7051,3.4238 -2.5254,1.3008 -0.18945,1.0664 -0.84375,-0.29492 -0.39649,0.73047 -0.0527,0.65039 -0.81445,-0.16602 -0.45118,0.19922 v 0.01367 l -0.11328,1.4316 0.0332,0.12891 0.10156,0.14453 0.42187,0.26367 0.53907,0.47656 0.60156,1.5898 0.0879,0.44141 0.0156,0.12891 0.1875,-0.11133 0.0293,0.25586 -0.0625,0.6836 -0.12891,0.16015 -0.041,0.0586 0.0156,0.45117 0.49805,2.0723 0.0469,0.0996 0.54296,-0.0586 0.28711,-0.39258 0.7168,-0.23242 1.7344,0.33594 0.49804,0.13086 0.81836,0.39062 0.24219,0.16016 0.0156,0.041 0.42969,-0.17382 -0.0918,-0.49414 -0.0254,-0.11133 -0.36132,-0.5 -0.16797,-0.17578 -0.29102,0.0605 -0.16797,-0.1289 -0.0644,-0.10157 -0.0391,-0.0996 -0.25977,-1.293 -0.33924,-0.80354 0.521,-0.01641 0.39202,-0.98283 0.51411,0.92583 0.0215,0.21875 0.14453,0.19922 0.20312,-0.04102 0.0645,-0.06055 -0.19336,-0.69727 -0.23242,-0.57031 0.0137,-0.16211 0.0586,-0.12109 0.0957,-0.06836 h 0.14454 l 0.21093,0.14453 0.0371,0.29688 0.14453,0.55274 0.1211,0.08008 0.10547,-0.01953 0.0723,-0.06055 0.27344,-0.52734 0.36133,-0.32227 0.53711,-0.37109 0.60351,-0.5957 0.0898,-0.81055 0.56836,-0.24805 0.55859,-0.11133 0.62305,-0.12891 0.45898,-0.06055 0.11133,0.06055 0.0898,0.14453 -0.0156,0.20117 0.0879,0.3125 0.4082,0.93164 0.25195,0.32422 0.90625,0.91602 0.1211,0.04883 h 0.008 l 0.18359,-0.0293 v -0.18555 l 0.01,-0.12891 0.0234,-0.41016 0.0566,-0.3125 0.0644,-0.44336 0.19922,-0.29688 0.17969,0.15234 0.0859,0.08008 0.11329,-0.0293 0.18554,-0.3457 -0.0332,-0.39453 -0.20899,-0.22461 -0.4414,-0.69141 -0.47656,-0.84375 -0.98633,-1.7676 -0.0723,-0.70703 -0.49023,-1.2383 -1.1484,-1.7363 -2.0078,-3.625 1.5664,-0.81641 -0.27539,-1.1504 -1.1894,-2.5332 z m 2.4805,19.619 -0.71875,0.41016 -0.52539,0.2168 -0.41797,0.31836 -0.16211,0.22656 -0.20703,0.88867 -0.10351,0.6582 0.0879,0.30664 0.33593,0.48243 0.43555,0.40234 1.1719,0.35938 0.33203,-0.15235 0.27148,-0.625 -0.16015,-0.28906 -0.0469,-0.0215 -0.0449,-0.0684 -0.0527,-0.21679 0.0879,-0.20899 0.19336,-0.17773 0.65821,-0.19336 0.46679,-0.52734 0.0625,-0.07031 0.01,-0.01953 0.17773,-0.33789 -0.11914,-0.33008 -0.32422,-0.51562 -0.31054,-0.32031 -0.0176,-0.01953 z m 1.5098,2.7031 -0.80078,0.33984 0.0879,0.44336 0.47461,-0.14648 0.0234,-0.25781 z m -5.4206,-1.2091 -0.24815,0.2235 0.29645,0.53552 -0.008,0.50201 0.71354,0.10007 0.19433,-0.32085 -0.6867,-0.77075 z m 3.4777,3.378 -4.6e-4,0.44246 0.61328,0.14258 -0.043,-0.47266 0.16016,-0.42774 -0.38868,0.0879 z m -1.6284,0.0871 -0.30367,-0.28524 -0.002,0.51172 0.33008,0.13086 0.16211,-0.14648 z m -3.6806,-0.15829 -0.0801,0.0293 0.0801,0.0684 0.041,0.14453 v 0.16211 l -0.13672,0.71289 -0.27539,-0.0488 -0.006,0.38672 0.0234,0.0899 0.36914,1.0996 0.39648,0.0879 0.31055,0.16797 0.17578,0.125 0.0664,-0.4043 0.33203,-0.21875 0.24414,-0.49024 -0.11914,-1.1582 -0.18359,-0.2793 -0.25782,-0.18554 -0.84375,-0.25 z m 4.4512,0.4043 -0.72071,0.53906 -0.30273,0.73243 0.60937,0.041 0.32422,-0.0117 0.27344,0.36524 0.32617,-0.0527 0.32422,-0.69922 -0.0606,-0.3164 z m 1.6953,1.1309 -0.32031,0.0625 -0.0918,0.48438 0.36328,0.0312 0.47656,-0.29297 z m -2.3242,0.88281 -0.33398,0.0117 0.11914,0.53125 0.33789,-0.17968 z"
         transform="translate(0,-0.10698)"
         id="Hancock__ME" />
      <path
         style="fill:#d0d0d0"
         d="m 971.08,67.826 5.4092,0.25 0.18542,-0.131 0.32091,-0.112 0.10341,0.02 0.5313,0.401 0.0802,0.145 1.3336,4.22 0.12837,0.811 -0.18364,1.093 -0.066,0.112 -0.26743,0.225 0.0196,0.242 0.64896,0.69 1.4406,1.446 0.9467,0.499 0.0321,0.02 0.0571,0.03 0.16759,0.04 0.0802,-0.02 0.40293,-0.587 -0.0642,-0.378 v -0.635 l 0.0802,-0.128 0.19968,-0.04 1.897,0.09 h 0.009 l 0.70602,0.515 0.39579,0.353 3.3982,4.138 0.35301,0.692 -0.0906,0.76165 0.0321,0.16 -0.42432,1.029 -1.4067,2.901 -0.37083,0.692 -1.0679,1.173 -0.6044,0.128 0.25704,-0.91796 -0.47522,-0.1791 -0.2855,-1.1897 -1.0221,0.79458 0.66876,0.87904 -0.32187,1.2129 -0.71974,0.36615 -1.2602,-0.56996 -0.42772,0.78285 0.42049,1.4719 -0.6131,0.61258 -1.1619,0.34646 -0.37505,0.9603 -2.239,-0.81996 0.60162,3.3543 -0.63649,0.33 -0.53842,0.241 -0.14441,0.05 -0.2086,-0.225 -0.44215,-0.691 -0.47603,-0.844 -0.98771,-1.768 -0.0713,-0.706 -0.49029,-1.238 -1.1482,-1.736 -2.0093,-3.625 1.5671,-0.818 -0.27456,-1.15 -1.1892,-2.532 -1.4299,-2.69 0.45107,-0.177 1.2837,-0.643 -0.82725,-1.824 -3.3482,-5.859 3.4606,-2.032"
         class="c23029"
         id="Washington__ME" />
      <path
         style="fill:#d0d0d0"
         d="m 967.62,69.858 3.3482,5.859 0.82725,1.824 -1.2837,0.643 -0.45107,0.177 -3.6246,1.895 1.3282,2.516 -1.8986,1.0196 0.93229,1.7274 -1.872,0.958 0.60261,1.116 1.7044,3.423 -2.5246,1.301 -0.19011,1.0671 -0.84395,-0.29508 -0.3958,0.731 -0.0518,0.65015 -0.81464,-0.16715 -0.45107,0.2 -0.4582,-0.305 -5.0616,2.869 -0.89322,-1.792 -0.9164,0.451 -3.6406,-7.377 2.9988,-1.519 4.3538,-2.275 -0.97073,-1.7331 1.5894,-0.7899 -3.1236,-5.955 -1.56,0.813 -0.89144,-3.327 1.9362,-1.1 -2.0093,-6.992 -1.6064,-5.481 -0.89857,-3.214 1.9023,-0.546 4.0418,-0.882 2.997,9.568 0.48316,1.528 0.49742,1.767 0.25852,1.084 1.084,3.682 0.36014,0.06 1.1571,-0.642 1.0947,-0.62 -0.0392,-0.12 0.007,-0.08 2.9667,-1.712"
         class="c23019"
         id="Penobscot__ME" />
      <path
         style="fill:#d0d0d0"
         d="m 928.7,80.57 2.1234,4.58 3.0933,6.308 1.4766,-0.58969 0.67037,0.94945 1.6612,-0.93775 2.222,3.8827 -0.67763,0.25338 0.8615,1.7925 1.4845,-0.5162 1.7683,3.6997 0.59566,-0.2581 0.90748,1.432 -0.1584,0.7459 -1.3623,0.36414 -0.34577,1.1974 0.74352,0.26836 -0.0626,0.69984 -1.1856,0.33936 -1.5511,1.118 -0.46533,-0.941 -0.8843,-1.334 -4.3099,0.49899 0.33231,-0.77999 -2.6761,-3.286 -2.0396,2.071 -2.5656,-6.033 0.56039,-0.23565 -0.9134,-2.3124 -1.2534,-2.909 -0.0161,-0.77 -0.016,-0.74 0.21573,-4.58 0.22464,-1.229 0.14619,-0.29 0.16759,-0.337 0.3958,-0.715 0.60796,-1.116 0.0499,-0.08 0.17472,-0.209"
         class="c23007"
         id="Franklin__ME" />
      <path
         style="fill:#d0d0d0"
         d="m 935.88,56.84 0.95383,4.027 2.2339,7.658 1.0768,1.221 1.3336,2.427 -1.204,2.7236 -1.115,1.0686 2.4763,1.5817 -0.22142,2.3171 4.7335,9.24 1.0929,1.824 1.5422,-0.772 2.209,-1.807 3.6406,7.377 -0.7595,0.39125 -0.76454,-0.51898 -0.6546,0.06736 -0.0999,1.2341 -0.7595,0.39125 -0.0214,-0.353 -0.1141,-0.208 h -0.22465 l -2.2179,1.118 0.0802,0.24 0.18542,0.385 0.28169,0.291 0.21573,0.06 0.54556,0.401 0.082,1.006 -0.18363,0.216 -3.6174,0.297 -1.7187,0.41 -0.90748,-1.431 -0.59566,0.2581 -1.7683,-3.6997 -1.4845,0.5162 -0.8615,-1.7925 0.67763,-0.25338 -2.222,-3.8827 -1.6612,0.93775 -0.67037,-0.94945 -1.4766,0.58969 -3.0933,-6.308 -2.1234,-4.58 0.13015,-0.161 0.89322,-1.069 2.0735,-5.014 0.0374,-0.369 -0.0374,-0.957 -0.24961,-0.193 -0.25673,-0.119 h -0.77198 l -0.29774,-0.983 -0.25852,-1.075 -0.49742,-2.884 0.20147,-1.56 0.2496,-1.872 0.009,-0.02 0.17472,-0.499 0.15511,-0.241 0.0214,-0.02 0.0428,-0.02 0.50455,-0.371 0.89143,-1.381 -0.18363,-1.471 -0.27278,-2.147 4.6212,-1.301"
         class="c23025"
         id="Somerset__ME" />
      <path
         style="fill:#d0d0d0"
         d="m 922.53,90.736 0.61865,1.767 3.3999,10.253 0.24068,0.772 3.0148,9.586 -0.23534,1.181 -3.1554,0.6777 -0.34945,2.4208 0.20206,1.2258 -0.42315,0.24557 -0.59353,-1.5541 -0.47862,-0.26719 -0.54756,-0.74977 -0.44689,0.15617 -0.65075,-0.708 -0.48315,-0.128 -1.6195,0.50533 -0.51642,-1.0113 -1.765,-0.298 -1.6509,-1.23 0.34409,0.03 0.51525,-0.378 0.041,-0.06 0.22464,-0.29 0.0945,-0.137 0.066,-0.104 0.79516,-1.398 0.0802,-0.137 0.18542,-0.515 -0.32106,-1.0665 0.53678,-0.93451 -0.41719,-0.673 -0.0713,-0.115 -0.40293,-0.499 -0.73811,-0.907 -0.60439,-0.596 -0.1355,-0.383 1.155,-4.1131 -1.1318,-1.5299 0.38688,-0.795 -0.1355,-1.366 0.3851,-4.154 1.2926,-1.688 0.17829,-0.127 0.34409,0.177 0.14442,0.287 0.0731,0.08 0.51525,0.257 0.8433,0.06 0.70602,-0.147 0.10519,-0.09 0.3851,-1.526"
         class="c33007"
         id="Coos__NH" />
      <path
         style="fill:#d0d0d0"
         d="m 916.01,114.98 1.0768,-1.398 1.6509,1.23 1.765,0.298 0.51642,1.0113 1.6195,-0.50533 0.48315,0.128 0.65075,0.708 0.78981,1.139 1.1553,1.76 0.6668,3.487 -3.1093,1.35 0.9057,2.074 0.36192,0.65 0.62303,1.2126 -1.8673,0.95167 0.20478,1.5779 -0.91985,1.5779 -1.2235,0.37752 -1.0104,-0.93852 -0.47424,1.003 -0.42611,1.213 -1.0555,0.08 -1.8453,0.07 -1.872,-0.289 -1.9932,0.161 -0.36612,-0.42147 0.28888,-1.2862 -0.22848,-0.58191 0.4165,-0.84518 0.33092,-0.18948 0.57805,-1.0067 0.0553,-1.1591 -0.26783,-1.1591 0.62544,-1.2732 0.11229,-1.1971 -0.40087,-0.47492 0.32135,-1.6913 0.29371,-0.84564 -0.35248,-0.31348 0.0553,-1.1591 -0.27277,-0.217 -0.29953,-0.403 -0.52773,-1.84 v -0.144 l 0.0553,-0.234 0.53843,-0.972 0.0499,-0.04 0.0838,-0.08 1.1125,-0.692 1.125,-0.707"
         class="c33009"
         id="Grafton__NH" />
      <path
         style="fill:#d0d0d0"
         d="m 931.8,130.37 0.4557,-1.068 0.63087,1.2678 0.44305,-0.0229 0.38859,-0.59269 0.42836,0.006 0.23707,0.82303 0.35382,-0.63656 0.37154,-0.88595 0.27991,3.135 0.12302,0.513 0.15154,0.323 0.46712,0.649 0.29595,0.153 0.80586,0.401 1.9433,1.159 0.0499,0.06 0.624,2.507 -0.62065,0.0834 0.11432,0.90658 -1.0673,0.0234 -2.2537,0.72355 0.41006,-1.456 -4.4006,-1.791 0.12123,-0.289 0.79516,-1.913 -0.79516,-1.784 -0.65074,-1.568 0.29774,-0.722"
         class="c33017"
         id="Strafford__NH" />
      <path
         style="fill:#d0d0d0"
         d="m 942.1,139.06 -0.69532,4.685 -0.59191,0.37101 -0.59191,-0.30101 -0.48851,0.03 -0.11232,0.06 -0.13193,0.06 h -0.007 l -1.5493,1.15 -0.22913,1.276 -1.3523,0.073 -0.21751,0.227 -0.35774,0.71899 0.39716,1.0555 -0.9469,0.0475 -2.0717,-0.40557 -0.70376,-1.0455 -0.75995,0.0564 -0.92532,-2.2728 1.2543,-0.62921 -0.75507,-1.0223 0.7702,-6.541 4.4006,1.791 -0.41006,1.456 2.2537,-0.72355 1.0673,-0.0234 -0.11432,-0.90658 0.62065,-0.0834 2.2482,0.901"
         class="c33015"
         id="Rockingham__NH" />
      <path
         style="fill:#d0d0d0"
         d="m 913.2,144.24 0.47602,0.489 0.98771,-0.168 -0.13722,-0.8331 0.61143,-0.20422 2.7622,-1.1261 -0.14378,0.58779 0.0178,0.408 2.3201,-0.14235 0.30487,2.54 0.48547,1.402 0.91639,-0.218 1.3276,2.9967 0.54031,-0.0288 0.61157,2.1701 -5.8318,1.263 -2.8936,0.618 -1.8381,-1.478 -0.59742,-0.87938 -0.37658,-0.55571 0.37153,-1.0535 -0.25933,-0.9314 1.0153,-1.0528 -0.45882,-1.2846 0.16662,-1.4531 -0.37836,-1.0656"
         class="c33005"
         id="Cheshire__NH" />
      <path
         style="fill:#d0d0d0"
         d="m 912.68,133.91 1.9932,-0.161 1.872,0.289 1.8453,-0.07 1.0555,-0.08 -0.58176,2.1721 -0.84754,0.003 -0.0126,0.4797 0.41229,0.28345 0.13396,0.42261 -0.41302,1.8886 0.75535,1.1579 0.37792,-0.15431 0.22349,1.0194 0.72385,0.653 -0.13015,1.437 -2.3201,0.14235 -0.0178,-0.408 0.14378,-0.58779 -2.7622,1.1261 -0.61143,0.20422 0.13722,0.8331 -0.98771,0.168 -0.47602,-0.489 -0.0642,-1.695 0.0731,-2.01 -0.40962,-0.26945 0.0655,-0.63055 -0.35096,0.0211 -0.44598,-3.685 -0.14681,-1.209 0.76546,-0.84795"
         class="c33019"
         id="Sullivan__NH" />
      <path
         style="fill:#d0d0d0"
         d="m 920.22,141.81 1.5605,-0.95955 1.3398,1.5327 2.8898,-1.4114 0.89081,1.8619 2.0636,-0.70345 1.1821,0.79499 1.1146,0.26587 0.75507,1.0223 -1.2543,0.62921 0.92532,2.2728 0.75995,-0.0564 0.70376,1.0455 2.0717,0.40557 -0.10698,0.242 -0.41541,0.988 -5.5465,1.278 -0.0713,0.02 -0.2496,0.06 -4.0649,0.909 -0.49208,0.11 -0.61157,-2.1701 -0.54031,0.0288 -1.3276,-2.9967 -0.91639,0.218 -0.48547,-1.402 -0.30487,-2.54 0.13015,-1.437"
         class="c33011"
         id="Hillsborough__NH" />
      <path
         style="fill:#d0d0d0"
         d="m 924.54,126.91 1.4138,0.885 4.0828,2.266 1.7615,0.313 -0.29774,0.722 0.65074,1.568 0.79516,1.784 -0.79516,1.913 -2.0831,-1.0193 -3.9287,-1.5716 -0.75416,0.62 -0.86466,-1.1433 -0.27856,0.19102 -0.75146,-0.48186 -0.0598,-0.37907 -0.84994,-0.35183 0.91985,-1.5779 -0.20478,-1.5779 1.8673,-0.95167 -0.62303,-1.2126"
         class="c33001"
         id="Belknap__NH" />
      <path
         style="fill:#d0d0d0"
         d="m 922.58,132.23 0.84994,0.35183 0.0598,0.37907 0.75146,0.48186 0.27856,-0.19102 0.86466,1.1433 0.75416,-0.62 3.9287,1.5716 2.0831,1.0193 -0.12123,0.289 -0.7702,6.541 -1.1146,-0.26537 -1.1821,-0.79449 -2.0636,0.70295 -0.89081,-1.8624 -2.8898,1.4114 -1.3398,-1.5327 -1.5605,0.95955 -0.72385,-0.653 -0.22349,-1.0194 -0.37792,0.15431 -0.75535,-1.1579 0.41302,-1.8886 -0.13396,-0.42261 -0.41229,-0.28345 0.0126,-0.4797 0.84754,-0.003 0.58176,-2.1721 0.42611,-1.212 0.47424,-1.004 1.0104,0.93852 1.2235,-0.37752"
         class="c33013"
         id="Merrimack__NH" />
      <path
         style="fill:#d0d0d0"
         d="m 929.8,113.11 3.284,10.872 2.0253,5.279 -0.37154,0.88595 -0.35382,0.63666 -0.23707,-0.82293 -0.42835,-0.006 -0.3886,0.59269 -0.44305,0.0229 -0.63087,-1.2678 -0.4557,1.068 -1.7615,-0.313 -4.0828,-2.266 -1.4138,-0.885 -0.36192,-0.65 -0.9057,-2.074 3.1093,-1.35 -0.6668,-3.487 -1.1553,-1.76 -0.78981,-1.139 0.44689,-0.15617 0.54756,0.74977 0.47862,0.26719 0.59353,1.5541 0.42315,-0.24557 -0.20206,-1.2258 0.34945,-2.4208 3.1554,-0.6777 0.23534,-1.181"
         class="c33003"
         id="Carroll__NH" />
      <path
         style="fill:#d0d0d0"
         d="m 939.01,173.47 -0.15569,0.009 -0.13206,0.12285 -0.199,0.14648 -0.0573,0.4181 -0.19112,-0.0858 -0.24229,0.2134 -0.0652,0.33538 0.14348,0.29607 -5.0567,1.5613 -0.25495,-0.965 -0.4992,-1.897 5.4395,-1.606 0.0481,-0.03 0.12837,-0.29903 -0.0481,-0.14997 0.0826,-0.28302 0.19202,-0.0565 0.0367,-0.12461 0.0679,3.9e-4 0.22743,-0.16658 0.0243,-0.0728 0.25199,0.0986 0.0207,0.11495 0.0933,0.0724 0.0712,0.15024 0.11377,0.0315 -0.0464,0.0993 0.0816,0.19355 0.0177,0.13779 0.22572,0.10336 0.30589,-0.0621 0.0176,0.0486 -0.23348,0.17782 0.0949,0.42804 -0.0624,0.25097 0.0688,0.1607 -0.0231,0.19145 -0.27962,-0.11903 0.0194,-0.19122 -0.12883,-0.0152 -0.11071,-0.0109 -0.0761,-0.11922 -0.0862,0.0223 0.0263,0.14026 -0.66443,0.0658 0.13717,0.49663 0.10338,0.0497 0.24397,-0.12726 0.29475,0.0732 z"
         class="c44003"
         id="Kent__RI" />
      <path
         style="fill:#d0d0d0"
         d="m 935.39,165.81 1.9191,-0.55872 0.18823,0.77572 0.54878,2.0694 0.66294,-0.32026 0.0296,0.21621 0.30268,0.63866 -0.005,0.3997 0.10639,0.14793 -0.0644,0.29768 0.149,0.22941 0.0893,0.29768 0.19594,0.16113 0.10331,0.17553 0.17467,0.015 -0.40978,0.69377 -0.085,0.062 -0.0277,-0.11442 -0.11493,-0.16343 -0.0687,0.005 -0.0663,-0.0647 0.003,-0.21655 -0.29031,-0.46272 -0.24104,-0.15362 -0.004,-0.14253 0.10062,-0.62552 -0.0582,-0.30642 -0.17354,-0.0898 -0.0547,0.20767 0.0276,0.26463 -0.0377,0.51737 -0.14485,-0.0153 -0.0465,0.0715 0.23827,0.33162 0.17096,0.0456 0.097,0.10471 -0.0416,0.10931 0.18595,0.52569 -0.252,-0.0986 -0.0243,0.0728 -0.22743,0.16658 -0.0679,-3.9e-4 -0.0367,0.12461 -0.19202,0.0565 -0.0826,0.28302 0.0481,0.14997 -0.12837,0.29903 -0.0481,0.03 -5.4395,1.606 -1.8096,-6.307 4.9011,-1.503"
         class="c44007"
         id="Providence__RI" />
      <path
         style="fill:#d0d0d0"
         d="m 939.38,171.05 0.40982,-0.69362 1.1202,0.26096 0.75595,0.68881 0.018,0.30302 -0.13514,0.089 -0.12235,-0.0664 -0.16689,-0.22625 -0.0565,0.0456 0.0254,0.19718 0.31239,0.28142 0.16951,0.18754 0.0157,0.20127 -0.16322,0.16066 -0.0325,0.14613 0.0193,0.27869 -0.0645,0.0352 -0.0931,-0.066 -0.0883,-0.19121 -0.11472,-0.0601 -0.0909,-0.11567 -0.15781,0.0346 -0.0445,0.40839 -0.12895,0.0212 -0.12657,-0.39604 0.0487,-0.13375 0.0919,-0.19404 -0.11431,-0.33985 0.0577,-0.52146 -0.0685,-0.36593 10e-4,-0.12275 -0.1936,-0.23267 -0.10643,0.19282 0.0221,0.12047 -0.16434,-0.0149 -0.13957,-0.14108 0.0344,-0.14046 -0.14082,-0.10341 -0.13154,0.0348 0.0345,0.31749 0.13665,0.17277 0.42262,0.21969 0.0672,0.11437 -0.0381,0.14019 0.005,0.1937 -0.0551,0.01 -0.12849,-0.20518 -0.23566,-0.0788 -0.16323,0.0642 -0.14229,-0.0358 -0.12059,-0.24613 z"
         class="c44001"
         id="Bristol__RI" />
      <path
         style="fill:#d0d0d0"
         d="m 941.25,173.07 -0.10264,0.14351 0.009,0.1182 0.16545,0.0278 0.0889,-0.16321 z m 1.0621,-0.66963 0.0762,0.57226 0.19727,0.70118 0.21679,0.1289 -0.11523,0.41406 0.21484,0.46875 -0.15625,0.11914 0.0918,0.2793 0.23633,0.0469 0.13086,0.55078 0.13086,0.0703 -0.0703,0.25781 0.46485,0.48438 0.0645,0.54883 0.34766,-0.28711 0.10937,-0.3418 0.29883,-0.19141 -0.0449,-0.27148 0.23633,-0.17383 -0.72358,-2.1901 -0.27285,-0.23381 -0.004,-0.44478 -0.28244,-0.7133 -1.0471,-0.10339 z m -2.0101,2.7507 -0.15208,0.003 -0.11265,0.14043 -0.007,0.26755 0.0593,0.41926 -0.0167,0.3712 0.20602,0.32351 0.15154,0.0909 -0.006,0.20683 0.0907,0.0675 -0.10121,0.0382 -0.22773,0.0349 -0.006,0.10268 0.16779,0.31004 0.0301,0.22143 -0.009,0.24072 0.0623,0.10448 0.12459,-0.25486 -0.0199,-0.15084 0.0562,-0.0631 0.0339,-0.27413 0.27284,-0.1038 0.0256,-0.11865 -0.16651,-0.19331 -0.0285,-0.1402 0.0801,-0.24663 -0.17812,-0.0894 0.0214,-0.0829 -0.16184,-0.49453 0.0267,-0.29447 z m 0.52624,-0.34162 0.13799,-0.1054 0.11689,-0.23709 0.0604,-0.60878 -0.20651,-0.17869 -0.4909,-0.17777 -0.11474,-0.32166 -0.17302,-0.21526 -0.14848,0.16142 0.17323,0.24514 -0.12614,0.17025 0.0333,0.20542 0.17883,0.10003 0.27717,-0.0154 0.0735,0.33392 -0.0569,0.22236 0.14203,0.41666 z m 0.48475,0.62073 0.11558,0.66729 -0.22392,-0.0358 0.0101,0.17494 0.0936,0.0499 0.0388,0.15035 0.0648,0.25117 0.20311,0.3168 -0.28809,0.22916 -0.0917,-0.10675 -0.23102,0.39308 -0.0202,0.17598 0.20525,0.18126 0.13487,-0.1315 0.10467,0.0129 0.23707,-0.24525 0.27779,0.0624 0.009,-0.23744 0.0525,-0.18547 -0.0542,-0.17493 0.0242,-0.15775 0.17433,-0.11787 0.0611,0.0898 0.12956,-0.0367 0.008,-0.14677 0.13697,-0.0388 0.11736,0.003 0.18836,0.10842 0.0175,0.16543 0.0818,-0.003 0.0133,-0.26946 -0.16492,-0.14127 -0.002,-0.34898 0.0629,-0.2096 -0.002,-0.42553 -0.13936,-0.0773 -0.1802,-0.44801 -0.062,-0.43989 -0.25864,-0.22249 -0.0543,-0.67271 0.26822,-0.2251 -0.24618,-0.61838 -0.11679,0.26414 -0.31366,0.21181 -0.077,0.30949 -0.11509,0.15247 0.0102,0.4065 -0.0813,0.2846 0.0203,0.4464 z"
         transform="translate(0,-0.10698)"
         id="Newport__RI" />
      <path
         style="fill:#d0d0d0"
         d="m 933.05,176.48 5.0567,-1.5613 -0.14348,-0.29607 0.0652,-0.33543 0.24229,-0.2134 0.19112,0.0858 0.0573,-0.4181 0.19899,-0.14648 0.13207,-0.1229 0.15569,-0.009 0.13541,0.36216 0.11621,0.19633 -0.0999,0.0835 -0.0227,0.1129 0.14493,-0.015 0.0956,0.12549 -0.17773,0.22205 0.12595,0.0934 0.14741,-0.0437 0.0495,0.15561 -0.0522,0.11455 -0.39999,0.28261 -0.18277,0.005 -0.0603,0.1175 0.15273,0.16253 0.35709,0.26249 0.075,0.15115 0.2067,0.30473 0.156,0.46385 -0.0686,0.21588 0.0827,0.32677 0.10562,0.16834 0.0464,0.18165 -0.12931,0.0617 -0.0243,0.24892 0.14196,0.10434 -0.0539,0.28123 -0.29519,0.30905 0.22189,0.52815 -0.27199,0.68159 -0.017,0.29446 0.0577,0.23901 -0.0987,0.009 -0.14923,-0.11522 -0.31628,-0.065 -0.002,-0.12592 0.13205,-0.15904 0.0729,-0.19451 -0.0501,-0.13162 -0.0215,-0.12928 -0.0914,-0.0699 -0.0795,-0.25902 -0.18074,0.0623 0.0252,0.13086 -0.01,0.59451 -0.037,0.13305 0.0708,0.16536 -0.29175,0.17053 -0.13603,0.0131 -0.004,3.4e-4 -0.36538,0.15638 -0.36334,0.26146 -0.48575,0.20088 -0.24689,0.2183 -0.84588,0.59933 -0.13357,0.24389 -0.21481,0.10993 -0.17431,0.0396 -0.25356,0.14733 -0.25611,0.0412 -0.21971,0.10424 -0.78601,0.42379 -0.18317,0.1398 -0.16605,0.24557 -0.11394,-0.0985 -0.15628,0.0672 -0.18075,0.10869 -0.0477,-0.13467 0.40918,-0.15024 0.0825,-0.19005 -0.003,-0.17111 0.23405,-0.3037 -0.0406,-0.21847 -0.20028,-0.26774 -0.0393,-0.44768 -0.20975,-0.25828 -0.0488,-0.31509 0.274,-0.35605 0.26578,0.004 0.0783,-0.0701 -0.96081,-3.9425 m 6.0905,7.1928 0.13713,0.38174 -0.0177,0.30213 0.0721,0.18323 0.42043,0.47696 -0.18428,0.1652 -0.4646,0.17752 -0.32994,0.23528 -0.12135,-0.11806 -0.10017,-0.61957 0.16538,-0.28606 0.28329,0.0921 0.0931,-0.12312 -0.24046,-0.27568 0.0628,-0.18935 -0.16741,-0.47156 z"
         class="c44009"
         id="Washington__RI" />
      <path
         style="fill:#d0d0d0"
         d="m 911.49,100.69 6.1973,-1.72 -0.38688,0.795 1.1318,1.5299 -1.155,4.1131 0.1355,0.383 0.60439,0.596 0.73811,0.907 0.40293,0.499 0.0713,0.114 0.41719,0.674 -0.53678,0.93451 0.32106,1.0665 -0.18542,0.515 -0.0802,0.137 -0.79516,1.398 -0.066,0.103 -0.0945,0.138 -0.22464,0.29 -0.041,0.06 -0.51525,0.378 -0.34409,-0.03 -1.0768,1.397 -1.8078,-1.478 0.48613,-0.4299 0.51912,-1.0568 -1.1306,-0.9578 0.68409,-1.7167 -1.3218,-0.49885 0.69888,-1.881 -1.9291,-0.738 -0.64362,-0.25 1.0353,-2.3658 -1.0103,-0.51818 -0.0981,-2.395"
         class="c50009"
         id="Essex__VT" />
      <path
         style="fill:#d0d0d0"
         d="m 911.59,103.09 1.0103,0.51818 -1.0353,2.3658 0.64362,0.25 -0.6972,1.8284 -1.8322,-0.70174 0.74876,1.4311 -1.0327,-0.28188 -1.0109,4.0941 -2.0093,-0.481 0.0714,-0.23833 -1.948,-0.54659 0.4884,-2.1234 -2.9513,-0.68267 0.51941,-1.4018 -0.63625,-1.9259 0.11627,-0.17898 -0.78405,-1.7109 4.1714,-0.9058 0.69562,-0.0369 3.4055,-1.0217 1.9685,-0.64507 z"
         class="c50019"
         id="Orleans__VT" />
      <path
         style="fill:#d0d0d0"
         d="m 906.71,143.62 -0.50812,-0.04 0.25673,1.3228 -0.16043,0.0192 0.40293,2.09 -2.1234,0.385 0.0802,0.481 0.78803,3.801 1.4334,-0.273 0.89856,4.251 -1.5279,0.321 -3.9847,0.861 -0.44574,0.13121 -0.68757,-1.5386 0.34887,-1.0319 -0.44574,-1.9647 -1.7187,-8.397 6.347,-1.238 0.86221,-0.1631 0.18433,0.9841"
         class="c50003"
         id="Bennington__VT" />
      <path
         style="fill:#d0d0d0"
         d="m 891.04,105.75 -0.17658,1.3099 -0.19075,0.26139 0.40438,0.60146 0.6311,0.063 0.0501,1.31 0.1635,0.41725 -0.007,0.28972 -0.33108,0.23893 -0.26023,0.98992 0.19319,0.42313 0.60412,0.60734 0.22102,0.86776 -0.0579,0.18598 0.12805,0.61984 -0.24383,0.13949 -0.0269,0.35643 0.17454,0.57335 -0.19735,0.51138 -1.3285,0.96073 -0.26564,-0.224 -0.28669,-0.9659 -0.13199,-0.89134 -0.0825,-1.5937 0.11906,-1.7884 -1.0042,-0.71828 -0.0389,-0.96389 0.32883,-1.072 -0.16872,-0.83409 -0.623,-0.63939 0.025,-0.394 2.3783,-0.642"
         class="c50013"
         id="Grand_Isle__VT" />
      <path
         style="fill:#d0d0d0"
         d="m 905.87,114.09 3.8082,0.972 0.0642,0.05 0.12123,0.224 -0.025,0.369 -0.34595,1.3831 -0.60143,1.1125 0.19509,0.61661 -0.45115,1.7588 -0.91639,-0.169 0.13379,2.1492 -2.0478,-0.33484 -0.0423,0.27118 -0.46481,-0.0457 -0.18312,1.7853 -0.15317,-0.0378 -0.29848,1.9247 -1.018,-0.137 -2.7634,-0.40764 -0.34017,0.11867 -0.71297,-1.9208 -0.30728,0.0967 0.27456,-2.795 -0.27456,-0.07 0.44381,-2.0957 0.52717,-0.0117 0.15205,-0.77234 -0.63987,-0.1263 0.27278,-1.212 0.74527,0.005 1.954,0.58876 0.55884,-1.9896 1.8926,0.7196 0.44215,-2.025"
         class="c50023"
         id="Washington__VT" />
      <path
         style="fill:#d0d0d0"
         d="m 912.21,106.22 1.9291,0.738 -0.69888,1.881 1.3218,0.49935 -0.68409,1.7168 1.1306,0.95793 -0.51912,1.0569 -0.48613,0.43003 1.8078,1.478 -1.125,0.707 -1.1125,0.692 -0.0838,0.08 -0.0499,0.04 -0.53843,0.972 -0.0553,0.234 v 0.144 l 0.52773,1.84 0.29953,0.403 0.27277,0.217 -2.2821,-0.274 -2.1056,0.747 -1.1232,-0.207 0.45115,-1.7588 -0.19509,-0.61661 0.60143,-1.1125 0.34595,-1.3831 0.025,-0.369 -0.12123,-0.224 -0.0642,-0.05 -3.8082,-0.972 0.50634,-1.977 2.0093,0.481 1.0109,-4.0941 1.0327,0.28188 -0.74876,-1.4311 1.8322,0.70174 0.6972,-1.8284"
         class="c50005"
         id="Caledonia__VT" />
      <path
         style="fill:#d0d0d0"
         d="m 902.04,108.52 2.9513,0.68267 -0.4884,2.1234 1.948,0.54659 -0.0714,0.23833 -0.50634,1.977 -0.44215,2.025 -1.8926,-0.7196 -0.55884,1.9896 -1.954,-0.58876 -0.74527,-0.005 -0.53973,-0.0417 0.29387,-1.24 -0.46679,-0.13553 0.18967,-0.8024 -0.35217,0.0208 -1.7005,-1.4433 -0.32507,0.0572 -10e-4,-0.48685 0.41587,-0.0268 0.40517,-1.578 0.92938,0.17642 -0.0129,-1.0358 0.17962,-0.0301 -0.013,-0.62923 0.0512,-0.51155 2.0556,-0.876 0.65075,0.314"
         class="c50015"
         id="Lamoille__VT" />
      <path
         style="fill:#d0d0d0"
         d="m 901.25,103.3 0.78405,1.7109 -0.11627,0.17898 0.63625,1.9259 -0.51941,1.4018 -0.65075,-0.314 -2.0556,0.876 -0.0512,0.51155 0.0129,0.62923 -0.17961,0.0301 0.0129,1.0358 -0.92938,-0.17642 -0.40517,1.578 -0.41588,0.0268 10e-4,0.48685 -1.9011,0.008 -3.3576,-0.95233 -0.60412,-0.60734 -0.1932,-0.42313 0.26024,-0.98992 0.33108,-0.23892 0.007,-0.28973 -0.1635,-0.41725 -0.0501,-1.31 -0.6311,-0.063 -0.40438,-0.60146 0.19075,-0.26139 0.17658,-1.3099 10.216,-2.4456"
         class="c50011"
         id="Franklin__VT" />
      <path
         style="fill:#d0d0d0"
         d="m 892.12,112.26 3.3576,0.95233 1.9011,-0.008 0.32507,-0.0572 1.7005,1.4433 0.35217,-0.0208 -0.18967,0.8024 0.46679,0.13553 -0.29387,1.24 0.53973,0.0417 -0.27278,1.212 0.63987,0.1263 -0.15205,0.77234 -0.52717,0.0117 -0.44381,2.0957 0.27456,0.07 -0.27456,2.795 -0.73097,-1.913 -0.30626,-1.0655 -0.76474,0.0182 0.11156,0.40962 -0.83666,0.30543 -0.0541,-0.0951 -3.042,1.3763 -0.86826,0.1 -0.62531,-2.379 0.17599,-1.381 -0.025,-0.25 -0.009,-0.01 -0.29774,-0.804 -0.22999,-0.499 -0.76486,-0.924 -0.46711,-0.273 1.3285,-0.96073 0.19735,-0.51138 -0.17454,-0.57335 0.0269,-0.35643 0.24383,-0.13949 -0.12805,-0.61984 0.0579,-0.18598 -0.22102,-0.86776"
         class="c50007"
         id="Chittenden_VT" />
      <path
         style="fill:#d0d0d0"
         d="m 893.03,123 0.86826,-0.1 3.042,-1.3763 0.0541,0.0951 0.83666,-0.30543 -0.11156,-0.40962 0.76474,-0.0182 0.30626,1.0655 0.73097,1.913 0.30728,-0.0967 0.71297,1.9208 0.34017,-0.11867 2.7634,0.40764 -0.41897,1.711 -0.22906,0.73924 -0.10323,-0.0251 -0.34302,1.7254 -0.22312,-0.085 -0.1392,-0.67251 -1.3425,1.132 0.28347,0.611 0.15333,0.273 -0.84092,0.71269 -0.42135,-0.88169 -2.0004,0.586 -0.97167,0.369 0.58478,1.535 -2.4194,0.901 -0.59548,-1.157 -0.27991,-0.507 -1.4457,-4.2424 -0.50652,-0.36255 -0.0392,-0.765 v -0.749 l 0.009,-1.902 0.67392,-1.922"
         class="c50001"
         id="Addison__VT" />
      <path
         style="fill:#d0d0d0"
         d="m 895.21,134.61 2.4194,-0.901 -0.58478,-1.535 0.97167,-0.369 2.0004,-0.586 0.42134,0.88169 0.84093,-0.71269 1.1838,-1.045 0.0785,0.39718 0.54004,0.12446 0.12046,-0.27414 0.66591,0.0825 0.28704,0.312 -0.23464,1.6123 0.2269,0.0179 -0.10877,0.64725 2.1989,0.31159 -0.37627,2.3124 -0.37628,0.0677 0.1967,2.108 0.34624,0.0197 0.0945,0.37635 0.49309,-0.0223 0.34707,0.1642 0.0114,0.94041 -0.24033,1.4858 -0.82774,-0.17146 -0.41684,0.234 0.0867,0.54869 -0.18607,0.10813 0.27546,1.0522 -6.347,1.238 -0.97345,-4.525 -0.44493,-1.1229 -0.79749,-0.26665 -0.44863,-0.90683 -1.077,0.15436 0.005,1.532 -0.54556,-0.226 -0.0642,-0.09 -0.16224,-1.342 0.0909,-0.933 0.31022,-1.704"
         class="c50021"
         id="Rutland__VT" />
      <path
         style="fill:#d0d0d0"
         d="m 906.71,143.62 2.3534,0.199 2.0895,-0.843 1.9754,-0.433 0.0642,1.695 0.37836,1.0656 -0.16662,1.4531 0.45882,1.2846 -1.0153,1.0528 0.25933,0.9314 -0.37153,1.0535 0.37658,0.55571 0.59742,0.87938 1.8381,1.478 -7.7698,1.664 -0.89856,-4.251 -1.4334,0.273 -0.78803,-3.801 -0.0802,-0.481 2.1234,-0.385 -0.40293,-2.09 0.16043,-0.0192 -0.25673,-1.3228 0.50812,0.04"
         class="c50025"
         id="Windham__VT" />
      <path
         style="fill:#d0d0d0"
         d="m 903.23,127.69 0.0963,0.355 0.21751,0.346 1.3104,0.112 1.8863,0.225 4.8209,0.554 2.1466,0.298 -0.57805,1.0067 -0.33097,0.18948 -0.4165,0.84518 0.22848,0.58191 -0.28888,1.2862 0.36612,0.42147 -0.76546,0.84795 0.14681,1.209 0.44598,3.685 0.35096,-0.0211 -0.0655,0.63055 0.40962,0.26945 -0.0731,2.01 -1.9754,0.433 -2.0895,0.843 -2.3534,-0.199 -0.18433,-0.9841 -0.86221,0.1631 -0.27549,-1.0522 0.18605,-0.10813 -0.0867,-0.54869 0.41681,-0.234 0.82774,0.17146 0.24033,-1.4858 -0.0114,-0.94041 -0.34707,-0.1642 -0.49309,0.0222 -0.0945,-0.37635 -0.34624,-0.0197 -0.1967,-2.108 0.37628,-0.0677 0.37627,-2.3124 -2.1989,-0.31159 0.10877,-0.64725 -0.2269,-0.0179 0.23464,-1.6123 -0.28704,-0.312 -0.66591,-0.0825 -0.12046,0.27414 -0.54004,-0.12446 -0.0785,-0.39718 -1.1838,1.045 -0.15333,-0.273 -0.28347,-0.611 1.3425,-1.132 0.1392,0.67251 0.22312,0.085 0.34302,-1.7733 0.10323,0.0251 0.22906,-0.69128"
         class="c50027"
         id="Windsor__VT" />
      <path
         style="fill:#d0d0d0"
         d="m 914.15,120.31 -0.0553,1.1591 0.35248,0.31348 -0.29371,0.84564 -0.32135,1.6913 0.40087,0.47492 -0.11229,1.1971 -0.62544,1.2732 0.26783,1.1591 -0.0553,1.1591 -2.1466,-0.298 -4.8209,-0.554 -1.8863,-0.225 -1.3104,-0.112 -0.21751,-0.346 -0.0963,-0.355 0.41897,-1.711 1.018,0.137 0.29848,-1.9247 0.15317,0.0378 0.18312,-1.7853 0.46481,0.0457 0.0423,-0.27118 2.0478,0.33484 -0.13379,-2.1492 0.91639,0.169 1.1232,0.207 2.1056,-0.747 2.2821,0.274"
         class="c50017"
         id="Orange__VT" />
    </g>
  </g>
  <g
     transform="translate(-1.821268e-8,-2.0017878e-5)"
     style="display:inline"
     inkscape:label="Borders"
     id="layer2"
     inkscape:groupmode="layer">
    <g
       transform="matrix(21.098325,0,0,21.098325,-2.5497715e-8,-1.2768411e-5)"
       id="g1633">
      <path
         style="opacity:0.5;fill:none;stroke:#221e1f;stroke-width:0.5"
         d="m 23.749628,75.239688 1.0155,3.5393 0.28013,1.0646 0.71349,2.9038 -0.23811,-0.0115 -0.15857,0.18961 0.0105,0.2059 0.13433,0.12212 0.0346,0.25408 0.094,0.17284 0.0197,0.10683 -0.10223,0.16369 -0.039,0.21402 -0.10599,0.0391"
         id="path1085" />
      <path
         style="opacity:0.5;fill:none;stroke:#221e1f;stroke-width:0.5"
         d="m 7.9887482,78.630608 0.88344,4.9064 0.30617,1.7857 0.35218,2.0651 0.15807,0.91022 0.9043098,0.83229 -1.2704998,1.3103 -0.70236,0.71719 1.0085,1.2974"
         id="path1071" />
      <path
         style="opacity:0.5;fill:none;stroke:#221e1f;stroke-width:0.5"
         d="m 16.560808,36.886078 -0.2171,0.44614 0.63656,0.938 -0.64958,2.2287 0.0759,0.21493 0.33917,0.33446 0.41422,0.50899 0.22612,0.28003 0.0399,0.06397 0.23413,0.37823 -0.30196,0.6077 0.1809,0.51521 -0.10405,0.289 -0.0449,0.07687 -0.44621,0.78452 -0.037,0.0578 -0.0529,0.07743 -0.12606,0.16274 -0.023,0.03369 -0.28916,0.21212 -0.19308,-0.01683 -0.60431,0.78396 -0.63132,0.39731 -0.62431,0.38833 -0.0469,0.0449 -0.0281,0.02243 -0.30216,0.54546 -0.031,0.13132 v 0.08081 l 0.29616,1.0326 0.16807,0.22616 0.15308,0.12178 -0.0345,0.72155 0.22195,0.15988 -0.16898,0.51322 -0.24944,0.97017 0.29747,0.24535 -0.0552,0.70088 -0.39986,0.65241 0.125,0.68279 0.0154,0.55754 -0.28628,0.64965 -0.17527,0.11557 -0.21946,0.47335 0.11371,0.31714 -0.13919,0.72126 0.13419,0.15349 -0.44637,0.58326 0.0992,0.57109 0.26857,2.0654 0.17865,-0.0092 -0.0119,0.37819 0.20502,0.12686 -0.041,1.128 0.0361,0.9512 0.27586,0.69145 -0.0891,0.81447 0.21882,0.75153 -0.54915,0.58197 0.11629,0.51617 -0.19538,0.55826 0.21845,0.34857 0.29443,0.38188 1.0315,0.82942"
         id="path1069" />
      <path
         style="opacity:0.5;fill:none;stroke:#221e1f;stroke-width:0.5"
         d="m 30.258628,59.385858 -1.2616,-0.50562 -0.35017,-1.4063 -0.028,-0.03368 -1.0906,-0.6504 -0.45223,-0.22503 -0.16607,-0.08588 -0.26213,-0.3642 -0.085,-0.18126 -0.0689,-0.28788 -0.15709,-1.7593 -1.1366,-2.9625 -1.843,-6.1011 -1.6918,-5.3794 -0.13507,-0.43323 -1.908,-5.7537 -0.34716,-0.9916"
         id="path1067" />
      <path
         style="opacity:0.5;fill:none;stroke:#221e1f;stroke-width:0.5"
         d="m 7.9073582,69.365528 -0.26419,0.0745 -0.39098,-0.72147 0.2347,-0.57073 -0.26988,-1.2537 -0.9645,-4.7122 -0.54627,-2.5393 -0.28514,-0.59353 -0.39825,-0.08381 -0.25963,-0.44531 -0.58272,0.06389 -0.0251,0.71644 -0.30615,-0.12683 -0.036,-0.0505 -0.0909,-0.7531 0.051,-0.52358 0.17409,-0.95624 -0.33417,-0.64928 -0.15707,-0.28452 -1.0756,-2.5393 -0.0199,-0.0449 -0.022,-0.43323 v -0.42032 l 0.005,-1.0674 0.3782,-1.0786 -0.38018,-1.2472 0.12801,-0.86278 -0.014,-0.1403 -0.005,-0.0056 -0.16708,-0.45119 -0.12907,-0.28003 -0.42922,-0.51853 -0.26212,-0.1532 -0.14909,-0.1257 -0.1366,-0.48134 -0.1187,-0.3951 -0.0187,-0.93921 0.0692,-1.0457 -0.52463999,-0.33624 -0.0982,-0.57839 0.17906,-0.57196 -0.0692,-0.50579 -0.34173,-0.39824 0.014,-0.2818"
         id="path1029" />
      <path
         style="opacity:0.5;fill:none;stroke:#221e1f;stroke-width:0.5"
         d="m 30.486808,77.910628 0.54231,0.0862 0.21235,0.4018 -0.005,0.243 0.12742,0.0939 0.438,1.3849"
         id="path1023" />
      <path
         style="opacity:0.5;fill:none;stroke:#221e1f;stroke-width:0.5"
         d="m 29.864368,62.026178 -0.35752,0.2097 -0.30682,-0.17042 -0.27415,0.01683 -0.063,0.03368 -0.074,0.03369 -0.87344,0.64535 -0.12859,0.7705 -0.75885,-0.01291 -0.12207,0.12682 -0.24533,0.3335 0.16708,0.688 -0.43101,0.0011 -0.0599,0.13636 -0.23312,0.55388 -3.1126,0.71775 -0.0399,0.01122 -0.14007,0.03369 -2.2812,0.51011 -0.27615,0.06229 -3.2726,0.70821 -1.6238,0.34737 -4.3602,0.93324 -0.85745,0.18014 -2.2360998,0.48317 -0.083,3.1695 -0.14208,5.6909 0.21611,0.43715 0.09,-0.0225 4.0539998,-0.85747 0.41521,-0.0937 1.759,-0.41591 0.14081,0.5577 0.49585,-0.17091 0.0188,-0.54175 2.2209,-0.52511 3.4677,-0.821 0.31518,-0.0623 0.39721,-0.08193 2.4072,-0.5724 0.063,0.18912 2.7504,-0.84345 1.1097,-0.30918 0.10529,0.43512 0.30514,1.1813 0.36524,-0.16677 0.0163,0.16042 0.1921,0.33664 9.9e-4,0.22109 0.0803,0.10392 -0.0435,0.16051 0.0657,0.10829 0.0517,0.16962 0.0961,0.0787 0.062,0.10103 0.06,0.008 0.69372,0.085 0.48352,0.44033"
         id="path1021" />
    </g>
  </g>
</svg>
